<svg width="1100" height="700" viewBox="0 0 1100 700" fill="none" xmlns="http://www.w3.org/2000/svg">
  <defs>
    <linearGradient id="tasksBg" x1="80" y1="50" x2="980" y2="650" gradientUnits="userSpaceOnUse">
      <stop stop-color="#23526F"/>
      <stop offset="1" stop-color="#152D3D"/>
    </linearGradient>
    <linearGradient id="tasksAccent" x1="610" y1="170" x2="920" y2="520" gradientUnits="userSpaceOnUse">
      <stop stop-color="#F5D2B7"/>
      <stop offset="1" stop-color="#B15A27"/>
    </linearGradient>
  </defs>
  <rect width="1100" height="700" rx="40" fill="#08131C"/>
  <rect x="52" y="52" width="996" height="596" rx="30" fill="url(#tasksBg)"/>
  <rect x="76" y="80" width="948" height="540" rx="26" fill="rgba(255,255,255,0.04)" stroke="rgba(255,255,255,0.12)"/>
  <rect x="108" y="118" width="228" height="464" rx="24" fill="rgba(8,19,28,0.46)" stroke="rgba(255,255,255,0.12)"/>
  <rect x="366" y="118" width="612" height="86" rx="24" fill="rgba(255,255,255,0.08)" stroke="rgba(255,255,255,0.14)"/>
  <rect x="366" y="228" width="392" height="354" rx="26" fill="rgba(255,255,255,0.06)" stroke="rgba(255,255,255,0.14)"/>
  <rect x="780" y="228" width="198" height="170" rx="26" fill="rgba(255,255,255,0.06)" stroke="rgba(255,255,255,0.14)"/>
  <rect x="780" y="416" width="198" height="166" rx="26" fill="rgba(255,255,255,0.06)" stroke="rgba(255,255,255,0.14)"/>

  <text x="144" y="162" fill="#EEF4FB" font-family="Inter, sans-serif" font-size="22" font-weight="700">Vie</text>
  <text x="144" y="190" fill="rgba(238,244,251,0.64)" font-family="Inter, sans-serif" font-size="13">Today at a glance</text>
  <rect x="132" y="228" width="180" height="48" rx="18" fill="rgba(255,255,255,0.1)"/>
  <text x="158" y="258" fill="#EEF4FB" font-family="Inter, sans-serif" font-size="15" font-weight="600">Today's tasks</text>
  <rect x="132" y="294" width="180" height="48" rx="18" fill="rgba(255,255,255,0.05)"/>
  <text x="158" y="324" fill="rgba(238,244,251,0.74)" font-family="Inter, sans-serif" font-size="15" font-weight="500">Progress</text>
  <rect x="132" y="360" width="180" height="48" rx="18" fill="rgba(255,255,255,0.05)"/>
  <text x="158" y="390" fill="rgba(238,244,251,0.74)" font-family="Inter, sans-serif" font-size="15" font-weight="500">Leaderboard</text>

  <text x="398" y="158" fill="#EEF4FB" font-family="Instrument Serif, serif" font-size="34">Good evening</text>
  <text x="398" y="188" fill="rgba(238,244,251,0.7)" font-family="Inter, sans-serif" font-size="15">Consistency wins when the day stays visible.</text>
  <rect x="816" y="138" width="130" height="44" rx="22" fill="rgba(255,255,255,0.12)" stroke="rgba(255,255,255,0.16)"/>
  <text x="845" y="166" fill="#EEF4FB" font-family="Inter, sans-serif" font-size="14" font-weight="600">Add task</text>

  <text x="398" y="270" fill="#EEF4FB" font-family="Inter, sans-serif" font-size="20" font-weight="700">Today's tasks</text>
  <rect x="398" y="296" width="328" height="1" fill="rgba(255,255,255,0.1)"/>

  <rect x="398" y="320" width="328" height="72" rx="20" fill="rgba(255,255,255,0.08)"/>
  <rect x="418" y="343" width="24" height="24" rx="8" fill="#F5D2B7"/>
  <text x="456" y="356" fill="#EEF4FB" font-family="Inter, sans-serif" font-size="16" font-weight="700">Review chemistry notes</text>
  <text x="456" y="378" fill="rgba(238,244,251,0.62)" font-family="Inter, sans-serif" font-size="13">High • 15 pts</text>

  <rect x="398" y="408" width="328" height="72" rx="20" fill="rgba(255,255,255,0.05)"/>
  <rect x="418" y="431" width="24" height="24" rx="8" fill="#7EB1D3"/>
  <text x="456" y="444" fill="#EEF4FB" font-family="Inter, sans-serif" font-size="16" font-weight="700">Finish history outline</text>
  <text x="456" y="466" fill="rgba(238,244,251,0.62)" font-family="Inter, sans-serif" font-size="13">Medium • 10 pts</text>

  <rect x="398" y="496" width="328" height="72" rx="20" fill="rgba(255,255,255,0.05)"/>
  <rect x="418" y="519" width="24" height="24" rx="8" fill="#9ED9C1"/>
  <text x="456" y="532" fill="#EEF4FB" font-family="Inter, sans-serif" font-size="16" font-weight="700">Pack gym bag</text>
  <text x="456" y="554" fill="rgba(238,244,251,0.62)" font-family="Inter, sans-serif" font-size="13">Low • 5 pts</text>

  <text x="806" y="270" fill="#EEF4FB" font-family="Inter, sans-serif" font-size="18" font-weight="700">Weekly goal</text>
  <text x="806" y="296" fill="rgba(238,244,251,0.62)" font-family="Inter, sans-serif" font-size="13">78 / 120 pts</text>
  <rect x="806" y="320" width="146" height="12" rx="6" fill="rgba(255,255,255,0.12)"/>
  <rect x="806" y="320" width="96" height="12" rx="6" fill="url(#tasksAccent)"/>
  <text x="806" y="460" fill="#EEF4FB" font-family="Inter, sans-serif" font-size="18" font-weight="700">Streak</text>
  <text x="806" y="486" fill="rgba(238,244,251,0.62)" font-family="Inter, sans-serif" font-size="13">5 days active</text>
  <rect x="806" y="516" width="20" height="20" rx="10" fill="#B15A27"/>
  <rect x="834" y="516" width="20" height="20" rx="10" fill="#B15A27"/>
  <rect x="862" y="516" width="20" height="20" rx="10" fill="#B15A27"/>
  <rect x="890" y="516" width="20" height="20" rx="10" fill="#B15A27"/>
  <rect x="918" y="516" width="20" height="20" rx="10" fill="#F5D2B7"/>
</svg>
