<svg width="1200" height="760" viewBox="0 0 1200 760" fill="none" xmlns="http://www.w3.org/2000/svg">
  <defs>
    <linearGradient id="heroBg" x1="86" y1="60" x2="1090" y2="688" gradientUnits="userSpaceOnUse">
      <stop stop-color="#23526F"/>
      <stop offset="1" stop-color="#152D3D"/>
    </linearGradient>
  </defs>
  <rect width="1200" height="760" rx="48" fill="#08131C"/>
  <rect x="56" y="56" width="1088" height="648" rx="34" fill="url(#heroBg)"/>
  <rect x="84" y="86" width="1032" height="588" rx="28" fill="rgba(255,255,255,0.04)" stroke="rgba(255,255,255,0.12)"/>
  <rect x="126" y="128" width="330" height="208" rx="26" fill="rgba(255,255,255,0.08)" stroke="rgba(255,255,255,0.14)"/>
  <rect x="488" y="128" width="586" height="248" rx="30" fill="rgba(255,255,255,0.06)" stroke="rgba(255,255,255,0.14)"/>
  <rect x="126" y="366" width="448" height="238" rx="28" fill="rgba(255,255,255,0.06)" stroke="rgba(255,255,255,0.14)"/>
  <rect x="604" y="406" width="470" height="198" rx="28" fill="rgba(255,255,255,0.06)" stroke="rgba(255,255,255,0.14)"/>
  <text x="160" y="176" fill="#EEF4FB" font-family="Instrument Serif, serif" font-size="34">Today’s push</text>
  <text x="160" y="208" fill="rgba(238,244,251,0.68)" font-family="Inter, sans-serif" font-size="15">Keep the streak honest.</text>
  <rect x="160" y="246" width="244" height="14" rx="7" fill="rgba(255,255,255,0.12)"/>
  <rect x="160" y="246" width="162" height="14" rx="7" fill="#F5D2B7"/>
  <text x="520" y="184" fill="#EEF4FB" font-family="Instrument Serif, serif" font-size="34">Tasks to leaderboard</text>
  <text x="520" y="216" fill="rgba(238,244,251,0.68)" font-family="Inter, sans-serif" font-size="15">One dashboard, one finish line, one honest race.</text>
  <rect x="520" y="260" width="512" height="74" rx="22" fill="rgba(255,255,255,0.08)"/>
  <rect x="544" y="284" width="24" height="24" rx="8" fill="#F5D2B7"/>
  <text x="584" y="298" fill="#EEF4FB" font-family="Inter, sans-serif" font-size="16" font-weight="700">Review lab summary</text>
  <text x="876" y="298" fill="rgba(238,244,251,0.7)" font-family="Inter, sans-serif" font-size="14">15 pts</text>
  <rect x="160" y="430" width="380" height="18" rx="9" fill="rgba(255,255,255,0.12)"/>
  <rect x="160" y="430" width="244" height="18" rx="9" fill="#B15A27"/>
  <text x="160" y="410" fill="#EEF4FB" font-family="Inter, sans-serif" font-size="20" font-weight="700">Weekly finish line</text>
  <text x="160" y="478" fill="rgba(238,244,251,0.66)" font-family="Inter, sans-serif" font-size="14">84 / 120 pts</text>
  <text x="638" y="456" fill="#EEF4FB" font-family="Inter, sans-serif" font-size="20" font-weight="700">Leaderboard preview</text>
  <rect x="638" y="484" width="402" height="40" rx="16" fill="rgba(255,255,255,0.08)"/>
  <rect x="638" y="536" width="402" height="40" rx="16" fill="rgba(255,255,255,0.05)"/>
  <text x="670" y="509" fill="#F5D2B7" font-family="Inter, sans-serif" font-size="15" font-weight="700">01</text>
  <text x="720" y="509" fill="#EEF4FB" font-family="Inter, sans-serif" font-size="15" font-weight="700">andy_is_king</text>
  <text x="956" y="509" fill="#EEF4FB" font-family="Inter, sans-serif" font-size="15" font-weight="700">118</text>
  <text x="670" y="561" fill="rgba(238,244,251,0.78)" font-family="Inter, sans-serif" font-size="15" font-weight="700">02</text>
  <text x="720" y="561" fill="#EEF4FB" font-family="Inter, sans-serif" font-size="15" font-weight="700">maria</text>
  <text x="956" y="561" fill="#EEF4FB" font-family="Inter, sans-serif" font-size="15" font-weight="700">104</text>
</svg>
