<svg width="1200" height="760" viewBox="0 0 1200 760" fill="none" xmlns="http://www.w3.org/2000/svg">
  <rect width="1200" height="760" rx="48" fill="#FFFFFF"/>
  <rect x="60" y="60" width="1080" height="640" rx="32" fill="#F6F5F2" stroke="#E4E3DD"/>
  <rect x="110" y="120" width="320" height="40" rx="12" fill="#0B0D0F"/>
  <rect x="110" y="190" width="400" height="18" rx="9" fill="#CCD3D8"/>
  <rect x="110" y="230" width="360" height="18" rx="9" fill="#CCD3D8"/>
  <rect x="110" y="270" width="300" height="18" rx="9" fill="#CCD3D8"/>
  <rect x="110" y="340" width="480" height="180" rx="24" fill="#FFFFFF" stroke="#E4E3DD"/>
  <rect x="130" y="370" width="240" height="14" rx="7" fill="#20D6B5"/>
  <rect x="130" y="400" width="220" height="12" rx="6" fill="#CCD3D8"/>
  <rect x="130" y="430" width="320" height="12" rx="6" fill="#CCD3D8"/>
  <rect x="130" y="460" width="280" height="12" rx="6" fill="#CCD3D8"/>
  <rect x="640" y="140" width="430" height="240" rx="28" fill="#0B0D0F"/>
  <rect x="680" y="180" width="220" height="14" rx="7" fill="#20D6B5"/>
  <rect x="680" y="210" width="300" height="12" rx="6" fill="#5A6168"/>
  <rect x="680" y="240" width="280" height="12" rx="6" fill="#5A6168"/>
  <rect x="680" y="270" width="200" height="12" rx="6" fill="#5A6168"/>
  <rect x="640" y="420" width="430" height="220" rx="28" fill="#FFFFFF" stroke="#E4E3DD"/>
  <rect x="680" y="460" width="140" height="16" rx="8" fill="#0F7FE8"/>
  <rect x="680" y="490" width="260" height="12" rx="6" fill="#CCD3D8"/>
  <rect x="680" y="520" width="240" height="12" rx="6" fill="#CCD3D8"/>
</svg>
